<svg width="24" height="24" viewBox="0 0 24 24" fill="none" xmlns="http://www.w3.org/2000/svg">
  <!-- Confluence-style overlapping curves -->
  <path d="M3.2 18.6c-.2.3-.4.7-.6 1-.2.4-.1.8.3 1l3.4 2c.4.2.8.1 1-.3.2-.3.4-.6.6-.9 1.6-2.7 3.3-2.4 6.3-.9l3.3 1.7c.4.2.8.1 1-.3l2-3.4c.2-.4.1-.8-.3-1l-3.2-1.7c-5.1-2.6-9.3-2.7-13.8 2.8z" fill="currentColor" opacity="0.7"/>
  <path d="M20.8 5.4c.2-.3.4-.7.6-1 .2-.4.1-.8-.3-1l-3.4-2c-.4-.2-.8-.1-1 .3-.2.3-.4.6-.6.9-1.6 2.7-3.3 2.4-6.3.9L6.5 1.8c-.4-.2-.8-.1-1 .3l-2 3.4c-.2.4-.1.8.3 1l3.2 1.7c5.1 2.6 9.3 2.7 13.8-2.8z" fill="currentColor"/>
</svg>
